<svg xmlns="http://www.w3.org/2000/svg" viewBox="0 0 64 64" fill="none">
  <defs>
    <linearGradient id="zg" x1="12" y1="6" x2="52" y2="58" gradientUnits="userSpaceOnUse">
      <stop stop-color="#2a7bf0" />
      <stop offset="1" stop-color="#0a3f8f" />
    </linearGradient>
  </defs>
  <!-- roundel -->
  <circle cx="32" cy="32" r="30" fill="#0a3f8f" stroke="#4f97f5" stroke-width="1.5" />
  <circle cx="32" cy="32" r="26" fill="url(#zg)" />
  <circle cx="32" cy="32" r="27.5" fill="none" stroke="#f5c84b" stroke-opacity="0.55" stroke-width="0.8" />
  <!-- star (求知之光) -->
  <path d="M32 19l1.7 3.9 4.2.4-3.2 2.8 1 4.1L32 28.9l-3.7 2.3 1-4.1-3.2-2.8 4.2-.4z" fill="#f5c84b" />
  <!-- open book (知识) -->
  <path d="M32 36c-5-2.6-11-2.6-15-1v11c4-1.6 10-1.6 15 1z" fill="#eaf2ff" />
  <path d="M32 36c5-2.6 11-2.6 15-1v11c-4-1.6-10-1.6-15 1z" fill="#cfe2ff" />
  <line x1="32" y1="35.4" x2="32" y2="47" stroke="#0a3f8f" stroke-width="1.1" />
  <!-- 之江 waves -->
  <path d="M16 51q4-3 8 0t8 0 8 0" fill="none" stroke="#f5c84b" stroke-width="1.6" stroke-linecap="round" />
</svg>
